<svg width="7" height="4" viewBox="0 0 7 4" fill="currentColor" xmlns="http://www.w3.org/2000/svg">
    <g>
        <path fill-rule="evenodd" clip-rule="evenodd" d="M2.82332 0.2535C2.98558 0.08984 3.19984 0 3.42953 0C3.65864 0 3.87404 0.08984 4.03517 0.2535L6.69026 3.01277C6.91366 3.2388 6.91366 3.60445 6.69026 3.83048C6.46743 4.05651 6.10577 4.05651 5.88236 3.83048L3.42953 1.27549L0.976121 3.83048C0.75272 4.05651 0.391623 4.05651 0.168222 3.83048C-0.0551788 3.60445 -0.0551788 3.2388 0.168222 3.01277L2.82332 0.2535Z" fill="currentColor"/>
        <path fill-rule="evenodd" clip-rule="evenodd" d="M2.82332 0.2535C2.98558 0.08984 3.19984 0 3.42953 0C3.65864 0 3.87404 0.08984 4.03517 0.2535L6.69026 3.01277C6.91366 3.2388 6.91366 3.60445 6.69026 3.83048C6.46743 4.05651 6.10577 4.05651 5.88236 3.83048L3.42953 1.27549L0.976121 3.83048C0.75272 4.05651 0.391623 4.05651 0.168222 3.83048C-0.0551788 3.60445 -0.0551788 3.2388 0.168222 3.01277L2.82332 0.2535Z" fill="currentColor"/>
    </g>
</svg>
